<?xml version="1.0" encoding="UTF-8"?>
<svg id="_图层_1" data-name="图层 1" xmlns="http://www.w3.org/2000/svg" viewBox="0 0 500 500">
  <defs>
    <style>
      .cls-1 {
        fill: #993595;
      }

      .cls-2 {
        fill: #a0348e;
      }

      .cls-3 {
        fill: #f22540;
      }

      .cls-4 {
        fill: #f44043;
      }

      .cls-5 {
        fill: #94369a;
      }

      .cls-6 {
        fill: #a93285;
      }

      .cls-7 {
        fill: #d72859;
      }

      .cls-8 {
        fill: #f32e41;
      }

      .cls-9 {
        fill: #333;
      }

      .cls-10 {
        fill: #f22440;
      }

      .cls-11 {
        fill: #f54443;
      }

      .cls-12 {
        fill: #d6285a;
      }

      .cls-13 {
        fill: #e6254b;
      }

      .cls-14 {
        fill: #f76248;
      }

      .cls-15 {
        fill: #f43742;
      }

      .cls-16 {
        fill: #b1307e;
      }

      .cls-17 {
        fill: #f65646;
      }

      .cls-18 {
        fill: #c42c6b;
      }

      .cls-19 {
        fill: #f54a44;
      }

      .cls-20 {
        fill: #f9774a;
      }

      .cls-21 {
        fill: #e1254f;
      }

      .cls-22 {
        fill: #cc2a63;
      }

      .cls-23 {
        fill: #bf2d70;
      }

      .cls-24 {
        fill: #f33642;
      }

      .cls-25 {
        fill: #f86d49;
      }

      .cls-26 {
        fill: #cd2a62;
      }
    </style>
  </defs>
  <g>
    <path class="cls-6" d="M248.49,103.51c5.66-.26,11.34-.08,16.99,.29,4.83,5.79,10.89,10.42,15.55,16.36-6.03-.94-12.03-2.25-18.16-2.35-4.68-4.88-9.44-9.68-14.38-14.3Z"/>
    <path class="cls-16" d="M234.41,104.84c4.64-.89,9.37-1.07,14.09-1.33,4.93,4.62,9.7,9.42,14.38,14.3-5.43-.53-10.89-.33-16.32-.04-3.55-4.76-8.41-8.32-12.14-12.93Z"/>
    <path class="cls-2" d="M265.49,103.8c6.01,.3,11.91,1.59,17.87,2.38l.2,.21c5.84,5.41,11.35,11.16,17.06,16.69,1.04,1.04,1.5,2.46,2.1,3.77-7.06-2.77-14.32-4.89-21.68-6.69-4.65-5.94-10.71-10.57-15.55-16.36Z"/>
    <path class="cls-23" d="M202.34,113.21c10.36-3.88,21.05-7.02,32.07-8.37,3.73,4.61,8.59,8.17,12.14,12.93-11.41,.55-22.71,2.94-33.54,6.56-3.5-3.76-7.36-7.18-10.67-11.12Z"/>
    <path class="cls-5" d="M283.56,106.39c29.57,6.14,57.26,21.87,76.91,44.9,7.49,8.1,13.61,17.39,18.98,27.01,2.59,5.56,5.69,10.92,7.47,16.82-1.05-.53-2.12-1.08-2.95-1.92-8.98-9.19-18.14-18.19-27.21-27.3-.28,.37-.86,1.09-1.15,1.45-13.71-17.79-32.15-31.89-52.9-40.5-.6-1.31-1.05-2.74-2.1-3.77-5.71-5.53-11.21-11.28-17.06-16.69Z"/>
    <path class="cls-26" d="M191.61,118.07c3.54-1.71,7.01-3.55,10.73-4.85,3.31,3.94,7.17,7.36,10.67,11.12-3.54,1.38-7.19,2.49-10.6,4.19-3.69-3.39-7.13-7.04-10.8-10.46Z"/>
    <path class="cls-12" d="M179.81,124.59c3.84-2.34,7.67-4.72,11.8-6.52,3.67,3.41,7.11,7.07,10.8,10.46-4.17,1.96-8.23,4.14-12.3,6.25l-.58-.11c-2.93-3.65-6.49-6.7-9.72-10.08Z"/>
    <path class="cls-21" d="M163.71,136.06c5.24-3.99,10.34-8.24,16.11-11.47,3.23,3.37,6.79,6.43,9.72,10.08l.04,.48c-5.49,3.17-10.58,6.95-15.55,10.89-3.65-3.11-6.62-6.9-10.31-9.97Z"/>
    <path class="cls-3" d="M150.66,148.75c3.86-4.71,8.75-8.4,13.04-12.69,3.69,3.06,6.66,6.86,10.31,9.97-8.65,6.89-16.14,15.15-22.68,24.05-3.69-2.96-6.78-6.55-10.3-9.69,2.88-4.14,6.17-7.95,9.62-11.63Z"/>
    <path class="cls-24" d="M130.01,177.5c3.26-5.92,6.78-11.81,11.03-17.12,3.52,3.14,6.61,6.73,10.3,9.69-4.18,5.52-7.85,11.47-10.84,17.71-3.46-3.23-6.37-7.09-10.32-9.75l-.16-.54Z"/>
    <path class="cls-1" d="M355.61,167.35c.29-.36,.86-1.08,1.15-1.45,9.07,9.1,18.23,18.11,27.21,27.3,.83,.85,1.89,1.39,2.95,1.92,1.51,3.66,2.94,7.37,3.9,11.23-4.91-.27-10.04,.51-14.8-.37-4.92-13.75-11.33-27.11-20.4-38.63Z"/>
    <path class="cls-11" d="M129.64,178.07l.54-.03c3.96,2.66,6.86,6.52,10.32,9.75-3.05,5.9-5.38,12.11-7.48,18.4-4.95,.32-9.92,.09-14.88,.16,2.76-9.82,6.76-19.29,11.49-28.28Z"/>
  </g>
  <g>
    <path class="cls-9" d="M18.93,213.98c4.39-.03,8.77,0,13.17-.02v61.76c-4.39,0-8.78,0-13.17-.02,.02-20.58,.02-41.15,0-61.73Z"/>
    <path class="cls-9" d="M49.83,216.37c4.32-2.3,9.37-2.29,14.14-2.4,10.68-.02,21.35,0,32.03,0v11.01c-10.18,.05-20.35-.12-30.52,.1-2.89,.17-6.48-.12-8.45,2.45-1.8,3.04-1.74,7.86,1.57,9.85,3.32,1.69,7.16,1.45,10.78,1.53,5.34,.09,10.72-.34,16.01,.54,5.08,.88,10.28,3.87,12.14,8.92,3.27,7.76,2.16,18-4.54,23.62-3.77,3.1-8.8,3.7-13.5,3.68-11.74,.16-23.49-.02-35.24,.09,.02-3.68,.02-7.36,.02-11.03,9.68-.02,19.36,.05,29.03-.03,2.88-.16,5.99-.03,8.56-1.53,3.24-1.92,3.65-6.65,1.81-9.65-1.16-2.1-3.62-2.94-5.82-3.4-8.49-.99-17.31,.82-25.6-1.76-5.35-1.46-9.08-6.38-10.25-11.63-1.83-7.44,.95-16.45,7.83-20.35Z"/>
    <path class="cls-9" d="M103,213.95c17.76,.04,35.52-.03,53.28,.04,0,3.65,0,7.32,0,10.97-6.86,.02-13.71,0-20.56,0,0,16.92,0,33.83,0,50.75-4.36-.02-8.73,.03-13.08-.03,.07-16.91,0-33.81,.03-50.71-6.56-.02-13.12,0-19.68-.02,0-3.67,0-7.34,0-11.01Z"/>
    <path class="cls-9" d="M167.35,216.92c4.19-2.71,9.4-2.82,14.23-2.94,10.97-.07,21.95,.03,32.93-.05-.18,3.68-.11,7.36-.09,11.04-3.89,0-7.77,0-11.66,0-7.97,.19-16-.43-23.93,.54-5.99,1.05-6.09,11.35-.12,12.57,6.45,1.54,13.18,.43,19.75,.87,1.4,.05,2.81,.14,4.22,.3,3.65,.48,7.15,1.95,10.03,4.25,.8,.86,1.55,1.77,2.24,2.73,4.41,7.91,3.85,19.1-3.08,25.42-3.79,3.34-9,4.08-13.87,4.03-11.78,.14-23.56,0-35.35,.12,.03-3.69,.07-7.38,.06-11.07,9.94-.05,19.89,.05,29.84-.05,3.09-.23,6.83-.04,9.07-2.61,1.96-2.1,1.86-5.31,.98-7.85-.81-1.25-1.84-2.33-3.08-3.13-5.86-2.14-12.21-.92-18.29-1.27-1.25-.04-2.49-.1-3.73-.17-4.5-.35-9.37-1.37-12.64-4.71-7.5-7.59-6.33-21.9,2.49-27.98Z"/>
    <path class="cls-9" d="M227.1,213.98c6.41-.02,12.83,0,19.24,0,.44,1.42,.87,2.84,1.3,4.28,4.69,14.52,9.14,29.14,14.03,43.6,5.42-15.4,10.5-30.91,15.66-46.4,.19-.37,.55-1.09,.73-1.46,6.32-.12,12.65,0,18.97-.04v61.76c-4.19,0-8.38,0-12.57,0-.12-15.44,.23-30.87-.18-46.3-1.85,6.43-4.15,12.71-6.45,18.99-3.01,9.16-6.33,18.23-9.48,27.34-4.48-.07-8.96-.02-13.44-.02-5.14-15.44-10.22-30.89-15.36-46.31,.03,15.43,0,30.85,.02,46.28-4.14,.05-8.28-.04-12.41,.09-.15-15.12-.02-30.24-.06-45.35,.03-5.49-.02-10.96,0-16.45Z"/>
    <path class="cls-9" d="M303.71,275.74c8.48-20.63,16.96-41.27,25.61-61.82,5.02,.31,10.16-.41,15.11,.36,8.56,20.43,16.97,40.94,25.45,61.41-5.12,.09-10.24,0-15.35,.05-1.95-4.78-4.03-9.51-6.04-14.26-7.83,.04-15.67,0-23.5,.03-2,4.76-3.82,9.61-6.07,14.26-5.07-.09-10.14-.05-15.21-.03Zm24.33-25.32c5.79-.06,11.58-.02,17.38-.03-2.48-7.32-5.84-14.31-8.49-21.57-3.05,7.16-5.95,14.39-8.89,21.6Z"/>
    <path class="cls-9" d="M376.59,213.98c11.12,.03,22.25-.14,33.37,.1,6.05,.23,12.74,.86,17.35,5.27,5.59,5.47,5.87,14.42,3,21.32-1.11,2.89-3.44,5.02-5.95,6.71-1.32,.51-2.61,1.09-3.87,1.71,2.74,1.37,5.9,2.44,7.6,5.19,4.23,6.36,3.01,14.31,4.89,21.41-4.87,.1-9.74,0-14.61,.06-1.54-5.59-1.03-11.61-3.35-16.99-1.75-3.4-5.24-5.72-9.03-6.08-5.38-.65-10.82-.35-16.23-.41,0,7.82,0,15.65,0,23.47-4.39,0-8.78,0-13.17,0,.02-20.58,.02-41.16,0-61.74Zm13.16,10.99c0,5.42,0,10.84,0,16.26,6.2-.02,12.41,.05,18.62-.02,2.63-.16,5.75-.24,7.55-2.49,2.05-2.66,2.06-6.37,1.18-9.46-1.08-2.88-4.31-4.17-7.18-4.18-6.72-.23-13.46-.05-20.19-.1Z"/>
    <path class="cls-9" d="M436.79,213.94c17.73,.05,35.46,.04,53.19,0,0,3.67-.02,7.34,.02,11.01-6.83,.05-13.65,0-20.48,.03-.03,16.92,.1,33.84-.06,50.77-4.36-.04-8.74-.05-13.09,0,.05-16.92-.04-33.83,.04-50.74-6.54-.09-13.08-.02-19.61-.05,0-3.68,.02-7.35,0-11.03Z"/>
  </g>
  <path class="cls-20" d="M118.14,283.34c4.8,.07,9.62-.16,14.42,.08,1.56,2,1.9,4.78,2.95,7.09,5.63,14.31,13.48,27.91,24.02,39.17,12.55,14.3,28.54,25.51,46.08,32.81-2.17,.93-6.29,2.89-4.62,5.77,2.74,4.34,7.39,7.04,10.18,11.37-15.67-5.14-30.57-12.79-43.55-23-23.59-18.47-41.26-44.45-49.48-73.29Z"/>
  <path class="cls-18" d="M382.07,283.33c4.61,0,9.23,0,13.84,0,0,7.37,.02,14.74,0,22.11-4.82-4.14-8.73-9.23-13.82-13.05-.05-3.02-.04-6.04-.02-9.05Z"/>
  <path class="cls-22" d="M382.09,292.39c5.09,3.82,9,8.91,13.82,13.05,0,4.75,.02,9.49-.02,14.24-4.96-4.01-8.93-9.06-13.81-13.15-.02-4.71-.03-9.42,.02-14.14Z"/>
  <path class="cls-7" d="M382.08,306.52c4.88,4.09,8.85,9.15,13.81,13.15,.05,9.29,.03,18.57,.02,27.86-3.45-3.12-6.61-6.54-9.99-9.73-1-1.04-2.15-1.99-2.77-3.3-.52-2.55-.61-5.15-.97-7.72-.27-6.74-.02-13.5-.09-20.25Z"/>
  <path class="cls-13" d="M382.05,372.07c.04-15.09-.09-30.2,.12-45.29,.36,2.57,.44,5.17,.97,7.72,.62,1.31,1.78,2.27,2.77,3.3,3.38,3.19,6.54,6.62,9.99,9.73,.02,4.89,.03,9.78,0,14.67-.02,4.7-.03,9.4,0,14.1-4.46-3.85-8.6-8.03-12.83-12.12-.31,2.59-.42,5.21-.58,7.81l-.45,.08Z"/>
  <path class="cls-25" d="M200.99,368.26c-1.67-2.88,2.45-4.84,4.62-5.77,8.28,3.38,16.92,6.02,25.74,7.54l-.08,.09c-.34,.34-1,1.03-1.33,1.37,4.7,4.85,9.69,9.41,14.22,14.42-11.21-.72-22.26-3.02-32.99-6.29-2.78-4.33-7.43-7.03-10.18-11.37Z"/>
  <path class="cls-10" d="M382.51,371.99c.16-2.6,.26-5.21,.58-7.81,4.22,4.1,8.36,8.28,12.83,12.12v2.15c0,2.6,0,5.21,0,7.82-4.88,0-9.76,0-14.63,.02-.59,0-1.78,0-2.38,0,.05-.34,.16-1,.21-1.33-2.73-2.11-4.99-4.71-7.45-7.11-1.84-1.82-3.82-3.54-5.37-5.63,5.24-.23,10.51,.29,15.75-.17l.45-.08Z"/>
  <path class="cls-14" d="M229.94,371.5c.34-.34,1-1.03,1.33-1.37,9,1.69,18.19,2.16,27.34,2.12-.2,.69-.41,1.39-.6,2.1,3.74,3.58,7.08,7.59,11.16,10.81,0,.28-.03,.85-.05,1.14-8.32-.09-16.65,.21-24.96-.37-4.53-5.02-9.52-9.58-14.22-14.42Z"/>
  <path class="cls-17" d="M258.61,372.24c7.96,.02,15.94-.03,23.91,.02,4.04,5.02,9.18,8.99,13.22,14-8.88,.05-17.74,0-26.62,.03,.02-.29,.04-.86,.05-1.14-4.08-3.22-7.42-7.23-11.16-10.81,.19-.71,.4-1.41,.6-2.1Z"/>
  <path class="cls-19" d="M282.51,372.26c7.78,0,15.56-.05,23.35,0,4.08,4.99,9.25,8.95,13.26,13.99-7.8,.05-15.59,.05-23.38,0-4.04-5.01-9.19-8.98-13.22-14Z"/>
  <path class="cls-4" d="M305.86,372.26c7.29-.02,14.58-.04,21.87,0,4.03,5.04,9.19,9,13.26,14-7.29,.03-14.59,.04-21.87,0-4.01-5.05-9.19-9-13.26-13.99Z"/>
  <path class="cls-15" d="M327.73,372.26c6.23,0,12.45-.04,18.67,0,3.99,5.06,9.27,8.92,13.22,14.02h-1.16c-5.82,0-11.64,.03-17.46-.02-4.07-5-9.23-8.96-13.26-14Z"/>
  <path class="cls-8" d="M346.4,372.26c6.64-.02,13.27-.02,19.9-.02,1.55,2.09,3.53,3.8,5.37,5.63,2.46,2.39,4.72,4.99,7.45,7.11-.05,.34-.16,1-.21,1.33h-1.35c-4.95-.04-9.9-.02-14.84,0-1.04,0-2.07-.02-3.1-.02-3.94-5.1-9.23-8.95-13.22-14.02Z"/>
</svg>